<?xml version="1.0" encoding="UTF-8"?>
<svg id="Layer_1" data-name="Layer 1" xmlns="http://www.w3.org/2000/svg" viewBox="0 0 1526.21 1255.43">
  <defs>
    <style>
      .cls-1 {
        fill: #fefdfd;
      }

      .cls-2 {
        fill: #1d1c1c;
      }

      .cls-3 {
        fill: #1f1f1f;
      }
    </style>
  </defs>
  <path class="cls-1" d="M.21,574.43c2.1-45.85,14.26-95.86,35.83-136.67,59.22-112.05,185.89-142.71,264.99-30.64,14.62,20.72,25.45,44.41,33.69,68.32,14.14-26.72,29.42-53.05,48.1-76.91,36.57-46.71,82.21-86.33,140.4-43.1,25.07,18.63,49.3,52.6,66,79,11.52,18.22,22.58,37.6,32,57,13.59,28.01,24.54,57.68,35,87,7.11,19.91,13.8,40.24,21,60,12.74,34.98,44.19,128.05,76.33,146.17,8.33,4.7,10.36,5.02,18.59.25,32.95-19.08,63.89-109.28,77.08-145.42,7.12-19.52,13.08-39.69,20-59,10.33-28.82,21.7-59.29,35-87,9.33-19.43,20.57-38.75,32-57,14.2-22.66,32.75-49.48,52-68,78.39-75.43,139.93,1.52,182.02,68.48,6.78,10.79,12.78,24.15,19.75,34.22.6.87-.17,1.85,2.22,1.3,25.95-77.8,91.48-152.15,181.83-132.31,100.14,21.98,147.67,141.31,152.18,233.32v36l-4.29,40.21c-12.12,76.44-55.99,162.77-133.19,189.81-62.29,21.81-97.74-4.11-134.91-51.12l-30.6-43.9v322h-50v-425.5c-4.72-9.76-7.58-20.27-11-30.5-6.77-20.27-14.82-40.31-22-60-15.94-43.73-30.09-91.48-57.78-129.72-8.31-11.47-22.38-30.8-38.13-21.69-26.58,15.38-51.8,78.99-63.09,107.41-11.04,27.78-19.95,56.13-30,84-6.88,19.1-13.51,38.97-21,58-22.51,57.24-81.07,169.49-140.02,193.48-55.65,22.65-100.95-31.52-129.2-71.76-26.09-37.16-49.09-81.49-65.78-123.72-7.64-19.34-13.98-39.41-21-59-10.22-28.52-19.67-57.01-31-85-12.14-30-30.29-77.21-54.99-98.51-8.5-7.33-13.23-10.75-23.7-4.68-29.64,17.17-58.67,95.96-71.31,128.19-10.79,27.53-20.42,55.1-30,83-1.4,4.09-10,21.73-10,24.5v206.5h-49v-102c-14.35,21.34-27.56,43.51-44.49,63.01-35.71,41.13-68.66,55.83-122.76,36.73-75.15-26.52-118.42-109.22-131.28-183.72L.21,618.43c.49-14.61-.67-29.41,0-44ZM182.01,395.74c-66.32,4.56-97.53,106.66-102.79,161.21-6.42,66.62,7.49,173.77,65.08,216.9,39.64,29.69,57.11,10.47,78.93-23.89,36.96-58.19,55.64-132.19,78.07-197.03-4.23-58.27-48.8-162.04-119.29-157.19ZM1337.01,395.74c-58.74,3.37-95.05,77.73-106.31,127.68-1.67,7.4-4.93,20.35-4.54,27.54.5,9.14,14.19,43.86,18.03,54.99,15.06,43.62,49.8,146.98,84.01,174.99,10.02,8.2,19.43,8.28,31.79,4.77,76.3-21.68,93.24-163.94,87.21-228.78-5.16-55.54-39.11-165.28-110.2-161.2Z"/>
  <path class="cls-3" d="M523.21,355.43c49.24-9.04,98.97-15.82,149-19v-60c-51.35,1.66-102.57,8.66-152.99,18-.59-19.16-.54-38.36-.97-57.54-.66-29.9-2.83-61.02-1.08-91,3.82-65.53,56.98-140.23,126.49-144.51,71.72-4.42,147.91,3.45,220.1,0,50.94,3.91,91.81,43.54,111.63,88.37s14.88,97.46,13.79,146.13c-.44,19.51-.72,39.04-.97,58.54-50.48-9.09-101.64-16.22-152.99-18v60c24.82,1.82,49.66,4,74.36,7.14,22.89,2.91,54.12,6.2,75.88,12.16.86.24,2.55.26,2.8,1.36l-.04,11.34c-19.25,18.52-37.8,45.34-52,68l-101-10v61l69,6c-13.3,27.71-24.67,58.18-35,87-11.82-.7-23.7-2.29-35.51-2.99-46.42-2.74-95.62-3.3-142.03-1.05-11.78.57-23.63,2.53-35.46,2.04-10.46-29.32-21.41-58.99-35-87l51-4v-61l-83,8c-16.7-26.4-40.93-60.37-66-79Z"/>
  <path class="cls-2" d="M1045.21,925.43h2s-1-3-1-3c2.5-6.79,5.05-15.91,7-23,4.05.53,5.82-3.14,2-5l1-5c11.88-4.11,6.93,4.52,8.44,6.98.7,1.13,7.77,3.89,3.03,4.97-11.95,2.74-3.31,7.65,3.54,9.56,1.81.5,3.63-1.35,4.99,1.01l-4.07,7.95c2.6,5.94,4.73.37,3.07-3.47l3.08.58c1.13,1.5.91,6.2-.06,7.71s-7.9,2.11-2.5,8.71c3.49-2.29,8.21-1.58,10.44-5.56.34-1.59-5.61-3.93-3.97-7.44,4.87-1.63,4.93,5.87,5.5,6,5.17,1.16.54-4.57,1.52-5.95l4.36-1.11c1.3,3.75,3.49,1.47,6.61,1.07l-.7,3.01c-4.39,0-3.3,3.73-3.3,6.99l-5.47-2.01c-2.88,3.4-5.4,8.79-.01,11,2.31.95,1.15-1.52,1.17-2.25.14-5.57,2.05-6.19,5.83-1.74l2.45-1.58c-1.48-3.9-.23-5.83,1.05-9.41l5.99,3c-.96,3.04-1.96,6-3,9-7.06-1.98-8.15,6.5-4,10-32.82,85.95-93.67,151.32-173.67,195.83l-24.32,12.16,108.54,2.97c2.36.08,4.55.98,6.92,1.08,82.48,3.66,166.22,7.18,247.87,20.13,19.13,3.03,44.01,6.78,61.65,14.35,26.1,11.19,3.94,20.24-10.99,24.98-49.09,15.57-120.44,20.34-172.5,24.5-166.17,13.27-334.19,13.74-500.95,10.97-110.61-1.84-223.9-5.19-333.92-18.08-23.6-2.77-102.89-12.22-118.56-26.44-12.44-11.29,17.39-19.14,24.72-21.15,36.59-10.06,81.72-14.49,119.72-18.28,77.63-7.74,156.17-11.28,233.95-14.05,12.19-.43,24.44.86,36.54-.97l-23.67-11.82c-114.04-60-191.29-175.81-198.38-305.62l.05-226.55h-20.01c9.58-27.89,19.21-55.47,30-82.99l49.06.44.8,1.2.1,306.9c14.65,213.73,239.54,348.09,436.72,261.64,73.61-32.27,136.65-96.79,165.32-172.18ZM1069.21,913.44c-.65-.65-5.54.03-4.99,2.48.87,3.83,7.28-.2,4.99-2.48ZM1055.21,918.44h-2.99v1.99h2.99v-1.99ZM1049.21,938.43c.33-1.82-1.1-3.31-2.99-2.99v2.99s2.99,0,2.99,0ZM1084.21,939.44h-1.99v1.99h1.99v-1.99Z"/>
  <path class="cls-3" d="M1056.21,889.43l8.04-55.46-.09-303.09,1.55-3.45h58.5v23h16c7.18,19.69,15.23,39.73,22,60h-38.01s.05,224.54.05,224.54c-2.15,31.71-7.48,62.24-17.04,92.46l-5.99-3c-1.28,3.58-2.53,5.51-1.05,9.41l-2.45,1.58c-3.78-4.45-5.69-3.83-5.83,1.74-.02.73,1.15,3.2-1.17,2.25-5.39-2.22-2.87-7.6.01-11l5.47,2.01c0-3.26-1.09-6.98,3.3-6.99l.7-3.01c-3.12.41-5.31,2.68-6.61-1.07l-4.36,1.11c-.98,1.38,3.65,7.11-1.52,5.95-.57-.13-.63-7.63-5.5-6-1.65,3.52,4.3,5.86,3.97,7.44-2.23,3.98-6.96,3.27-10.44,5.56-5.4-6.6,1.53-7.2,2.5-8.71s1.19-6.21.06-7.71l-3.08-.58c1.66,3.84-.47,9.41-3.07,3.47l4.07-7.95c-1.36-2.35-3.18-.51-4.99-1.01-6.85-1.9-15.48-6.81-3.54-9.56,4.73-1.09-2.34-3.84-3.03-4.97-1.51-2.47,3.44-11.09-8.44-6.98Z"/>
  <path class="cls-3" d="M1104.21,936.43c-1.19,3.44-2.72,6.65-4,10-4.15-3.5-3.06-11.98,4-10Z"/>
  <path class="cls-2" d="M595.21,646.43c16.69,42.23,39.69,86.57,65.78,123.72,28.25,40.24,73.55,94.41,129.2,71.76,58.95-23.99,117.51-136.25,140.02-193.48l56.22,9.28,3.29,1.71c1.91,3.22-.36,10.77-.42,14.41-.55,38.22,2.41,78.42-.06,117.15-4,62.71-57.32,136.55-123.55,141.45-72.81-3.36-149.7,4.52-222.04.06-70.31-4.33-122.65-79.56-126.49-145.51l.14-128.44,77.9-12.1Z"/>
  <path class="cls-3" d="M849.21,639.43c-13.19,36.14-44.13,126.34-77.08,145.42-8.23,4.76-10.25,4.44-18.59-.25-32.14-18.11-63.59-111.19-76.33-146.17l31.46-2.04c46.91,0,93.8-.67,140.54,3.04Z"/>
  <path class="cls-3" d="M574.21,587.43l-55,9v-89l24-5c11.33,27.99,20.78,56.48,31,85Z"/>
  <path class="cls-3" d="M981.21,506.43c1.61-.15,6.69.12,7.04,1.66l-.04,88.34-37-6c10.05-27.87,18.96-56.22,30-84Z"/>
  <path class="cls-3" d="M1069.21,913.44c2.29,2.28-4.12,6.31-4.99,2.48-.55-2.45,4.34-3.13,4.99-2.48Z"/>
  <path class="cls-3" d="M1053.21,899.43c.49-1.77.58-3.62,2-5,3.82,1.86,2.05,5.53-2,5Z"/>
  <path class="cls-3" d="M1049.21,938.43h-2.99s0-2.99,0-2.99c1.89-.32,3.32,1.17,2.99,2.99Z"/>
  <rect class="cls-3" x="1052.22" y="918.44" width="2.99" height="1.99"/>
  <path class="cls-3" d="M1046.21,922.43l1,3h-2c.31-.82.6-1.91,1-3Z"/>
  <rect class="cls-3" x="1082.22" y="939.44" width="1.99" height="1.99"/>
</svg>