<?xml version="1.0" encoding="UTF-8"?>
<svg xmlns="http://www.w3.org/2000/svg" version="1.1" viewBox="0 0 1582.05 1514.28">
  <!-- Generator: Adobe Illustrator 29.5.1, SVG Export Plug-In . SVG Version: 2.1.0 Build 141)  -->
  <defs>
    <style>
      .st0 {
        fill: #fefdfd;
      }

      .st1 {
        isolation: isolate;
      }

      .st2 {
        fill: #1d1c1c;
      }

      .st3 {
        fill: #1f1f1f;
      }
    </style>
  </defs>
  <g id="Layer_2">
    <g class="st1">
      <g class="st1">
        <path d="M133.21,867.92h54.69l118.75,292.38h-69.34l-21.88-58.98h-109.77l-21.88,58.98H14.65l118.55-292.38ZM195.71,1048.39l-35.35-95.31-35.16,95.31h70.51Z"/>
        <path d="M379.5,867.92h59.18l56.84,179.49,56.45-179.49h59.38l69.53,292.38h-66.6l-38.28-183.59-57.62,183.59h-46.09l-57.42-183.2-38.48,183.2h-66.6l69.73-292.38Z"/>
        <path d="M716.41,867.92h88.09c23.17,0,41.99,2.28,56.45,6.84,14.45,4.56,26.04,11.4,34.77,20.51,15.23,16.02,22.85,38.67,22.85,67.97,0,26.95-6.45,47.92-19.34,62.89-8.72,10.03-20.58,17.48-35.55,22.36-14.97,4.88-34.7,7.32-59.18,7.32h-23.63v104.49h-64.45v-292.38ZM798.05,1000.73c8.2,0,15.07-.23,20.61-.68,5.53-.46,10.87-1.76,16.02-3.91,5.14-2.15,9.28-5.5,12.4-10.06,4.69-5.99,7.03-14,7.03-24.02,0-10.67-2.61-19.14-7.81-25.39-3.39-4.03-7.59-6.96-12.6-8.79-5.01-1.82-10.16-2.96-15.43-3.42-5.27-.46-12.01-.68-20.21-.68h-17.19v76.95h17.19Z"/>
        <path d="M951.96,837.65h64.45v322.66h-64.45v-322.66Z"/>
        <path d="M1080.47,934.03c-5.73-3.45-10.29-8.07-13.67-13.87-3.39-5.79-5.08-12.08-5.08-18.85s1.69-13.25,5.08-19.04c3.38-5.79,7.94-10.35,13.67-13.67,5.73-3.32,12.04-4.98,18.95-4.98s13.05,1.66,18.85,4.98c5.79,3.32,10.42,7.88,13.87,13.67,3.45,5.79,5.18,12.14,5.18,19.04s-1.73,13.06-5.18,18.85c-3.45,5.79-8.08,10.42-13.87,13.87-5.79,3.45-12.08,5.18-18.85,5.18s-13.22-1.72-18.95-5.18ZM1067.19,970.66h64.45v189.65h-64.45v-189.65Z"/>
        <path d="M1191.8,1020.46h-26.95v-49.8h26.95v-64.45c0-15.23,2.64-27.96,7.91-38.18,5.27-10.22,12.5-17.84,21.68-22.85,9.18-5.01,19.69-7.52,31.54-7.52h47.85v50.39h-23.24c-5.86,0-10.29.85-13.28,2.54-3,1.69-5.05,4.33-6.15,7.91-1.11,3.58-1.66,8.69-1.66,15.33v56.84h44.34v49.8h-44.34v139.84h-64.65v-139.84Z"/>
        <path d="M1381.84,1160.3h-10.74l-72.27-189.65h65.43l44.73,131.25,45.12-131.25h65.23l-113.48,297.27h-66.99l42.97-107.62Z"/>
      </g>
      <g class="st1">
        <path d="M196.73,1234.96h29.8l64.72,159.35h-37.79l-11.92-32.15h-59.82l-11.92,32.15h-37.68l64.61-159.35ZM230.79,1333.31l-19.27-51.95-19.16,51.95h38.43Z"/>
        <path d="M311.53,1384.19c-6.28-8.3-9.42-19.87-9.42-34.7v-58.54h35.13v58.54c0,6.25,1.28,10.98,3.83,14.21,2.55,3.23,6.53,4.84,11.92,4.84,3.69,0,7.03-.92,10.01-2.77,2.98-1.84,5.34-4.54,7.08-8.09,1.74-3.55,2.61-7.84,2.61-12.88v-53.86h35.13v103.36h-35.13v-12.67c-3.69,4.68-8.25,8.36-13.68,11.02-5.43,2.66-11.44,3.99-18.04,3.99-13.34,0-23.15-4.15-29.43-12.45Z"/>
        <path d="M450.55,1389.67c-7.42-4.65-13.18-11.07-17.3-19.27-4.12-8.2-6.17-17.4-6.17-27.62s2.06-19.55,6.17-27.78c4.12-8.23,9.88-14.69,17.3-19.37,7.41-4.68,15.91-7.03,25.49-7.03,7.17,0,13.78,1.17,19.85,3.51,6.07,2.34,11.23,6.17,15.49,11.5v-85.16h35.23v175.85h-35.23v-12.45c-3.26,4.97-8.18,8.67-14.74,11.12-6.56,2.45-13.43,3.67-20.6,3.67-9.58,0-18.08-2.33-25.49-6.97ZM465.03,1355.61c1.88,3.94,4.67,7.08,8.36,9.42,3.69,2.34,8.16,3.51,13.41,3.51s9.72-1.17,13.41-3.51c3.69-2.34,6.47-5.48,8.36-9.42,1.88-3.94,2.82-8.21,2.82-12.83s-.94-8.99-2.82-12.93c-1.88-3.94-4.67-7.08-8.36-9.42-3.69-2.34-8.16-3.51-13.41-3.51s-9.72,1.17-13.41,3.51c-3.69,2.34-6.48,5.48-8.36,9.42-1.88,3.94-2.82,8.25-2.82,12.93s.94,8.89,2.82,12.83Z"/>
        <path d="M581.64,1270.99c-3.12-1.88-5.61-4.4-7.45-7.56-1.85-3.16-2.77-6.58-2.77-10.27s.92-7.22,2.77-10.38c1.84-3.16,4.33-5.64,7.45-7.45,3.12-1.81,6.56-2.71,10.33-2.71s7.11.91,10.27,2.71c3.16,1.81,5.68,4.29,7.56,7.45,1.88,3.16,2.82,6.62,2.82,10.38s-.94,7.12-2.82,10.27c-1.88,3.16-4.4,5.68-7.56,7.56-3.16,1.88-6.58,2.82-10.27,2.82s-7.2-.94-10.33-2.82ZM574.4,1290.95h35.13v103.36h-35.13v-103.36Z"/>
        <path d="M656.42,1390.05c-8.98-4.4-15.95-10.66-20.92-18.79-4.97-8.12-7.45-17.62-7.45-28.47s2.5-20.06,7.5-28.26c5-8.2,11.99-14.56,20.97-19.11,8.98-4.54,19.25-6.81,30.82-6.81s21.93,2.27,30.87,6.81c8.94,4.54,15.88,10.91,20.81,19.11,4.93,8.2,7.4,17.62,7.4,28.26s-2.47,20.35-7.4,28.47c-4.93,8.13-11.85,14.39-20.76,18.79-8.91,4.4-19.21,6.6-30.92,6.6s-21.95-2.2-30.92-6.6ZM668.71,1361.78c3.69,4.93,9.9,7.4,18.63,7.4s14.72-2.46,18.42-7.4c3.69-4.93,5.54-11.19,5.54-18.79s-1.9-13.91-5.7-19.16c-3.8-5.25-9.88-7.88-18.25-7.88s-14.67,2.63-18.47,7.88c-3.8,5.25-5.7,11.64-5.7,19.16s1.84,13.86,5.54,18.79Z"/>
      </g>
      <g class="st1">
        <path d="M814.81,1392.97c-6.56-2.45-11.48-6.16-14.74-11.12v12.45h-35.13v-175.85h35.13v85.16c8.09-10.01,19.91-15.01,35.45-15.01,9.58,0,18.08,2.34,25.49,7.03,7.42,4.68,13.18,11.14,17.3,19.37,4.11,8.23,6.17,17.49,6.17,27.78s-2.06,19.43-6.17,27.62c-4.12,8.2-9.88,14.62-17.3,19.27-7.42,4.65-15.91,6.97-25.49,6.97-7.24,0-14.14-1.22-20.7-3.67ZM802.89,1355.61c1.88,3.94,4.67,7.08,8.36,9.42,3.69,2.34,8.16,3.51,13.41,3.51s9.74-1.17,13.46-3.51,6.53-5.48,8.41-9.42c1.88-3.94,2.82-8.21,2.82-12.83s-.94-8.99-2.82-12.93c-1.88-3.94-4.67-7.08-8.36-9.42-3.69-2.34-8.2-3.51-13.52-3.51s-9.72,1.17-13.41,3.51c-3.69,2.34-6.48,5.48-8.36,9.42-1.88,3.94-2.82,8.25-2.82,12.93s.94,8.89,2.82,12.83Z"/>
        <path d="M932.22,1390.05c-8.98-4.4-15.95-10.66-20.92-18.79-4.97-8.12-7.45-17.62-7.45-28.47s2.5-20.06,7.5-28.26c5-8.2,11.99-14.56,20.97-19.11,8.98-4.54,19.25-6.81,30.82-6.81s21.93,2.27,30.87,6.81c8.94,4.54,15.88,10.91,20.81,19.11,4.93,8.2,7.4,17.62,7.4,28.26s-2.47,20.35-7.4,28.47c-4.93,8.13-11.85,14.39-20.76,18.79-8.91,4.4-19.21,6.6-30.92,6.6s-21.95-2.2-30.92-6.6ZM944.51,1361.78c3.69,4.93,9.9,7.4,18.63,7.4s14.72-2.46,18.42-7.4c3.69-4.93,5.54-11.19,5.54-18.79s-1.9-13.91-5.69-19.16c-3.8-5.25-9.88-7.88-18.26-7.88s-14.67,2.63-18.47,7.88c-3.8,5.25-5.7,11.64-5.7,19.16s1.84,13.86,5.54,18.79Z"/>
      </g>
      <g class="st1">
        <path d="M1060.38,1390.05c-8.98-4.4-15.95-10.66-20.92-18.79-4.97-8.12-7.45-17.62-7.45-28.47s2.5-20.06,7.5-28.26c5-8.2,11.99-14.56,20.97-19.11,8.98-4.54,19.25-6.81,30.82-6.81s21.93,2.27,30.87,6.81c8.94,4.54,15.88,10.91,20.81,19.11,4.93,8.2,7.4,17.62,7.4,28.26s-2.47,20.35-7.4,28.47c-4.93,8.13-11.85,14.39-20.76,18.79-8.91,4.4-19.21,6.6-30.92,6.6s-21.95-2.2-30.92-6.6ZM1072.67,1361.78c3.69,4.93,9.9,7.4,18.63,7.4s14.72-2.46,18.42-7.4c3.69-4.93,5.54-11.19,5.54-18.79s-1.9-13.91-5.69-19.16c-3.8-5.25-9.88-7.88-18.26-7.88s-14.67,2.63-18.47,7.88c-3.8,5.25-5.7,11.64-5.7,19.16s1.84,13.86,5.54,18.79Z"/>
      </g>
      <g class="st1">
        <path d="M1204.03,1348.32v45.98h-35.13v-175.85h35.13v114l35.45-41.51h45.88l-47.79,49.18,50.14,54.18h-47.26l-36.4-45.98Z"/>
      </g>
      <g class="st1">
        <path d="M1301.85,1387.23c-10.01-6.28-15.51-15.95-16.5-29.01h34.91c0,5.68,2.22,9.44,6.65,11.28,4.43,1.85,9.74,2.77,15.91,2.77,4.97,0,8.91-.75,11.82-2.24,2.91-1.49,4.36-3.8,4.36-6.92,0-2.2-1.01-3.96-3.03-5.27-2.02-1.31-4.56-2.31-7.61-2.98-3.05-.67-7.45-1.44-13.2-2.29-9.23-1.35-16.87-2.89-22.94-4.63-6.07-1.74-11.32-4.79-15.75-9.15-4.44-4.36-6.65-10.48-6.65-18.36,0-10.08,4.21-17.9,12.61-23.47,8.41-5.57,20.53-8.36,36.35-8.36,31.29,0,48.5,11.25,51.63,33.74h-34.49c-.57-4.26-2.47-7.31-5.69-9.15-3.23-1.84-6.94-2.77-11.12-2.77-3.48,0-6.65.53-9.53,1.6s-4.31,2.87-4.31,5.43c0,1.99.96,3.58,2.87,4.79,1.92,1.21,4.4,2.17,7.45,2.87,3.05.71,7.24,1.46,12.56,2.24,9.37,1.49,17.14,3.16,23.31,5,6.17,1.85,11.53,5,16.07,9.47,4.54,4.47,6.81,10.64,6.81,18.52,0,12.77-4.77,22.02-14.32,27.73-9.54,5.71-22.19,8.57-37.95,8.57-16.82,0-30.23-3.14-40.24-9.42Z"/>
      </g>
    </g>
  </g>
  <g id="Layer_3">
    <path class="st0" d="M303.9,377.32c1.31-28.67,8.92-59.93,22.4-85.45,37.02-70.05,116.22-89.22,165.67-19.16,9.14,12.95,15.91,27.77,21.06,42.71,8.84-16.71,18.39-33.17,30.07-48.08,22.86-29.2,51.4-53.97,87.78-26.95,15.67,11.65,30.82,32.89,41.26,49.39,7.2,11.39,14.12,23.51,20.01,35.64,8.5,17.51,15.34,36.06,21.88,54.39,4.45,12.45,8.63,25.16,13.13,37.51,7.97,21.87,27.63,80.06,47.72,91.39,5.21,2.94,6.48,3.14,11.62.16,20.6-11.93,39.94-68.32,48.19-90.92,4.45-12.2,8.18-24.81,12.5-36.89,6.46-18.02,13.57-37.07,21.88-54.39,5.83-12.15,12.86-24.23,20.01-35.64,8.88-14.17,20.48-30.94,32.51-42.51,49.01-47.16,87.49.95,113.8,42.81,4.24,6.75,7.99,15.1,12.35,21.39.38.54-.11,1.16,1.39.81,16.22-48.64,57.19-95.13,113.68-82.72,62.61,13.74,92.32,88.35,95.14,145.87v22.51l-2.68,25.14c-7.58,47.79-35.01,101.76-83.27,118.67-38.94,13.64-61.11-2.57-84.35-31.96l-19.13-27.45v201.32h-31.26v-266.03c-2.95-6.1-4.74-12.67-6.88-19.07-4.23-12.67-9.27-25.2-13.75-37.51-9.97-27.34-18.81-57.19-36.12-81.1-5.2-7.17-13.99-19.26-23.84-13.56-16.62,9.62-32.39,49.39-39.44,67.15-6.9,17.37-12.47,35.09-18.76,52.52-4.3,11.94-8.45,24.36-13.13,36.26-14.07,35.79-50.69,105.97-87.54,120.97-34.79,14.16-63.11-19.71-80.78-44.86-16.31-23.23-30.69-50.95-41.13-77.35-4.78-12.09-8.74-24.64-13.13-36.89-6.39-17.83-12.3-35.64-19.38-53.14-7.59-18.76-18.94-48.27-34.38-61.59-5.31-4.58-8.27-6.72-14.82-2.93-18.53,10.73-36.68,59.99-44.58,80.15-6.75,17.21-12.77,34.45-18.76,51.89-.88,2.56-6.25,13.59-6.25,15.32v129.11h-30.64v-63.77c-8.97,13.34-17.23,27.2-27.82,39.39-22.33,25.71-42.93,34.91-76.75,22.96-46.98-16.58-74.04-68.29-82.08-114.86l-3.43-23.15c.31-9.13-.42-18.39,0-27.51ZM417.56,265.61c-41.46,2.85-60.98,66.68-64.27,100.79-4.01,41.65,4.68,108.64,40.69,135.61,24.78,18.56,35.71,6.55,49.35-14.94,23.11-36.38,34.79-82.65,48.81-123.18-2.64-36.43-30.51-101.31-74.58-98.28h0ZM1139.67,265.61c-36.72,2.11-59.43,48.6-66.47,79.83-1.04,4.63-3.08,12.72-2.84,17.22.31,5.71,8.87,27.42,11.27,34.38,9.42,27.27,31.14,91.89,52.52,109.4,6.26,5.13,12.15,5.18,19.88,2.98,47.7-13.55,58.29-102.5,54.52-143.03-3.23-34.72-24.45-103.33-68.9-100.78h0Z"/>
    <path class="st3" d="M630.88,240.4c30.79-5.65,61.88-9.89,93.16-11.88v-37.51c-32.1,1.04-64.13,5.41-95.65,11.25-.37-11.98-.34-23.98-.61-35.97-.41-18.69-1.77-38.15-.68-56.89,2.39-40.97,35.62-87.67,79.08-90.35,44.84-2.76,92.47,2.16,137.61,0,31.85,2.44,57.4,27.22,69.79,55.25,12.39,28.03,9.3,60.93,8.62,91.36-.28,12.2-.45,24.41-.61,36.6-31.56-5.68-63.55-10.14-95.65-11.25v37.51c15.52,1.14,31.05,2.5,46.49,4.46,14.31,1.82,33.84,3.88,47.44,7.6.54.15,1.59.16,1.75.85l-.02,7.09c-12.04,11.58-23.63,28.35-32.51,42.51l-63.15-6.25v38.14l43.14,3.75c-8.32,17.32-15.42,36.37-21.88,54.39-7.39-.44-14.82-1.43-22.2-1.87-29.02-1.71-59.78-2.06-88.8-.66-7.36.36-14.77,1.58-22.17,1.28-6.54-18.33-13.39-36.88-21.88-54.39l31.89-2.5v-38.14l-51.89,5c-10.44-16.51-25.59-37.74-41.26-49.39h0Z"/>
    <path class="st2" d="M957.24,596.77h1.25l-.63-1.88c1.56-4.25,3.16-9.95,4.38-14.38,2.53.33,3.64-1.96,1.25-3.13l.63-3.13c7.43-2.57,4.33,2.83,5.28,4.36.44.71,4.86,2.43,1.89,3.11-7.47,1.71-2.07,4.78,2.21,5.98,1.13.31,2.27-.84,3.12.63l-2.54,4.97c1.63,3.71,2.96.23,1.92-2.17l1.93.36c.71.94.57,3.88-.04,4.82s-4.94,1.32-1.56,5.45c2.18-1.43,5.13-.99,6.53-3.48.21-.99-3.51-2.46-2.48-4.65,3.04-1.02,3.08,3.67,3.44,3.75,3.23.73.34-2.86.95-3.72l2.73-.69c.81,2.34,2.18.92,4.13.67l-.44,1.88c-2.74,0-2.06,2.33-2.06,4.37l-3.42-1.26c-1.8,2.13-3.38,5.5,0,6.88,1.44.59.72-.95.73-1.41.09-3.48,1.28-3.87,3.64-1.09l1.53-.99c-.93-2.44-.14-3.64.66-5.88l3.74,1.88c-.6,1.9-1.23,3.75-1.88,5.63-4.41-1.24-5.1,4.06-2.5,6.25-20.52,53.74-58.56,94.61-108.58,122.43l-15.21,7.6,67.86,1.86c1.48.05,2.84.61,4.33.68,51.57,2.29,103.92,4.49,154.97,12.59,11.96,1.89,27.52,4.24,38.54,8.97,16.32,7,2.46,12.65-6.87,15.62-30.69,9.73-75.3,12.72-107.85,15.32-103.89,8.3-208.94,8.59-313.2,6.86-69.15-1.15-139.98-3.24-208.77-11.3-14.75-1.73-64.33-7.64-74.12-16.53-7.78-7.06,10.87-11.97,15.46-13.22,22.88-6.29,51.09-9.06,74.85-11.43,48.53-4.84,97.64-7.05,146.27-8.78,7.62-.27,15.28.54,22.85-.61l-14.8-7.39c-71.3-37.51-119.6-109.92-124.03-191.08l.03-141.64h-12.51c5.99-17.44,12.01-34.68,18.76-51.89l30.67.28.5.75.06,191.88c9.16,133.63,149.76,217.63,273.04,163.58,46.02-20.18,85.43-60.51,103.36-107.65v-.03ZM972.24,589.28c-.41-.41-3.46.02-3.12,1.55.54,2.39,4.55-.13,3.12-1.55ZM963.49,592.4h-1.87v1.24h1.87v-1.24ZM959.74,604.9c.21-1.14-.69-2.07-1.87-1.87v1.87h1.87ZM981.62,605.53h-1.24v1.24h1.24v-1.24Z"/>
    <path class="st3" d="M964.11,574.26l5.03-34.67-.06-189.49.97-2.16h36.57v14.38h10c4.49,12.31,9.52,24.84,13.75,37.51h-23.76l.03,140.38c-1.34,19.83-4.68,38.91-10.65,57.81l-3.74-1.88c-.8,2.24-1.58,3.44-.66,5.88l-1.53.99c-2.36-2.78-3.56-2.39-3.64,1.09-.01.46.72,2-.73,1.41-3.37-1.39-1.79-4.75,0-6.88l3.42,1.26c0-2.04-.68-4.36,2.06-4.37l.44-1.88c-1.95.26-3.32,1.68-4.13-.67l-2.73.69c-.61.86,2.28,4.45-.95,3.72-.36-.08-.39-4.77-3.44-3.75-1.03,2.2,2.69,3.66,2.48,4.65-1.39,2.49-4.35,2.04-6.53,3.48-3.38-4.13.96-4.5,1.56-5.45s.74-3.88.04-4.82l-1.93-.36c1.04,2.4-.29,5.88-1.92,2.17l2.54-4.97c-.85-1.47-1.99-.32-3.12-.63-4.28-1.19-9.68-4.26-2.21-5.98,2.96-.68-1.46-2.4-1.89-3.11-.94-1.54,2.15-6.93-5.28-4.36h0Z"/>
    <path class="st3" d="M994.12,603.65c-.74,2.15-1.7,4.16-2.5,6.25-2.59-2.19-1.91-7.49,2.5-6.25Z"/>
    <path class="st2" d="M675.89,422.34c10.43,26.4,24.81,54.12,41.13,77.35,17.66,25.16,45.98,59.03,80.78,44.86,36.86-15,73.47-85.18,87.54-120.97l35.15,5.8,2.06,1.07c1.19,2.01-.23,6.73-.26,9.01-.34,23.9,1.51,49.03-.04,73.24-2.5,39.21-35.84,85.37-77.24,88.44-45.52-2.1-93.59,2.83-138.82.04-43.96-2.71-76.68-49.74-79.08-90.97l.09-80.3,48.7-7.56h0Z"/>
    <path class="st3" d="M834.7,417.96c-8.25,22.59-27.59,78.99-48.19,90.92-5.15,2.98-6.41,2.78-11.62-.16-20.09-11.32-39.76-69.52-47.72-91.39l19.67-1.28c29.33,0,58.64-.42,87.87,1.9h0Z"/>
    <path class="st3" d="M662.76,385.45l-34.39,5.63v-55.64l15-3.13c7.08,17.5,12.99,35.31,19.38,53.14Z"/>
    <path class="st3" d="M917.22,334.81c1.01-.09,4.18.08,4.4,1.04l-.02,55.23-23.13-3.75c6.28-17.42,11.85-35.15,18.76-52.52Z"/>
    <path class="st3" d="M972.24,589.28c1.43,1.43-2.58,3.95-3.12,1.55-.34-1.53,2.71-1.96,3.12-1.55Z"/>
    <path class="st3" d="M962.24,580.52c.31-1.11.36-2.26,1.25-3.13,2.39,1.16,1.28,3.46-1.25,3.13Z"/>
    <path class="st3" d="M959.74,604.9h-1.87v-1.87c1.18-.2,2.08.73,1.87,1.87Z"/>
    <rect class="st3" x="961.62" y="592.4" width="1.87" height="1.24"/>
    <path class="st3" d="M957.86,594.9l.63,1.88h-1.25c.19-.51.38-1.19.63-1.88Z"/>
    <rect class="st3" x="980.38" y="605.53" width="1.24" height="1.24"/>
  </g>
</svg>